<?xml version="1.0" encoding="UTF-8"?>
<svg id="Layer_1" data-name="Layer 1" xmlns="http://www.w3.org/2000/svg" viewBox="0 0 27.19 31.96">
  <defs>
    <style>
      .cls-1 {
        fill: #b3b3b3;
      }

      .cls-2 {
        fill: #666;
      }

      .cls-3 {
        fill: #4d4d4d;
      }
    </style>
  </defs>
  <g id="surface1">
    <path class="cls-1" d="m26.14,25.55c0,.52-.22,1.02-.62,1.37-.11.1-.18.24-.18.39s.07.29.18.39c.39.35.62.85.62,1.38,0,1.01-.82,1.84-1.84,1.84s-1.84-.82-1.84-1.84c0-.14.02-.29.05-.43.04-.16,0-.32-.1-.45-.1-.13-.25-.2-.41-.2H5.19c-.16,0-.32.07-.41.2-.1.12-.14.29-.1.45.04.14.05.29.05.43,0,1.01-.82,1.84-1.84,1.84s-1.84-.82-1.84-1.84c0-.52.22-1.03.61-1.38.11-.1.18-.24.18-.39s-.06-.29-.18-.39c-.39-.35-.61-.85-.61-1.37,0-1.02.82-1.84,1.84-1.84s1.84.82,1.84,1.84c0,.14-.02.29-.05.43-.04.16,0,.32.1.45.1.13.25.2.41.2h16.81c.16,0,.31-.07.41-.2.1-.12.14-.29.1-.45-.04-.14-.05-.29-.05-.43,0-1.02.82-1.84,1.84-1.84s1.84.82,1.84,1.84Z"/>
    <path class="cls-2" d="m21.93,13.79c.06.2.04.41-.06.6-.1.18-.27.32-.47.38-.43.13-.88.19-1.31.19-.76,0-1.51-.19-2.2-.56-.93-.5-1.64-1.29-2.04-2.25l2.91-.86c1.23-.37,2.54.34,2.9,1.57l.27.93Z"/>
    <path class="cls-2" d="m14.35,16.43s.03.08.03.11c0,.05-.02.09-.03.11-.02.04-.08.11-.2.11h-1.13c-.11,0-.17-.07-.19-.11-.03-.04-.06-.12,0-.22l.76-1.32.76,1.32Z"/>
    <path class="cls-2" d="m8.43,11.29l2.91.86c-.4.96-1.12,1.75-2.04,2.25-1.08.59-2.33.72-3.51.37-.41-.12-.65-.56-.53-.98l.27-.93c.18-.6.58-1.09,1.12-1.39.35-.19.73-.29,1.11-.29.22,0,.45.03.67.1Z"/>
    <path class="cls-1" d="m24.48,16.53c.56.39.89,1.04.89,1.72,0,1.16-.95,2.1-2.1,2.1-.66,0-1.26-.29-1.66-.81-.1-.12-.24-.2-.4-.2-.16,0-.31.06-.41.18-.87.98-1.35,2.23-1.35,3.54v.17h-1.81v-1.79c0-.29-.23-.52-.52-.52s-.53.23-.53.52v1.79h-2.47v-1.79c0-.29-.24-.52-.53-.52s-.52.23-.52.52v1.79h-2.47v-1.79c0-.29-.23-.52-.53-.52s-.52.23-.52.52v1.79h-1.81v-.17c0-1.31-.48-2.56-1.35-3.54-.1-.12-.25-.18-.41-.18-.16,0-.3.08-.4.2-.4.52-1,.81-1.66.81-1.16,0-2.1-.94-2.1-2.1,0-.68.34-1.32.89-1.72.14-.1.22-.26.22-.43v-4.43c0-2.84,1.11-5.52,3.12-7.52,2-2,4.66-3.09,7.5-3.09h.04c2.84-.01,5.52,1.09,7.54,3.09,2.02,2.01,3.12,4.68,3.12,7.52v4.43c0,.17.08.33.22.43Zm-1.65-6.83c.28-.07.45-.36.37-.64-.79-2.88-2.91-5.31-5.66-6.49-.27-.12-.57,0-.69.27-.11.27.01.58.28.69,2.46,1.06,4.36,3.23,5.06,5.8.06.23.28.39.51.39.04,0,.09,0,.14-.02Zm-.04,5.2c.23-.43.29-.93.15-1.4l-.27-.92c-.53-1.79-2.42-2.82-4.21-2.29l-3.45,1.02c-.28.08-.44.38-.36.65.43,1.45,1.4,2.65,2.73,3.37.84.45,1.77.69,2.7.69.54,0,1.08-.08,1.61-.23.23-.07.45-.18.64-.34.18-.15.34-.34.46-.55ZM15.93,2.55c.05-.29-.13-.56-.41-.61-.62-.12-1.25-.18-1.88-.18h-.08c-.29,0-.53.23-.53.53s.24.52.53.52h.08c.57,0,1.13.05,1.68.16.03,0,.07,0,.1,0,.25,0,.47-.17.52-.43Zm-.66,14.63c.23-.4.23-.88,0-1.28l-1.21-2.1c-.09-.16-.27-.27-.45-.27s-.36.1-.46.27l-1.21,2.1c-.23.4-.23.88,0,1.28.23.4.64.64,1.1.64h1.13c.46,0,.88-.24,1.11-.64Zm-2.73-5.22c.08-.28-.08-.57-.36-.65l-3.45-1.02c-.87-.26-1.78-.16-2.58.27-.79.43-1.37,1.15-1.63,2.02l-.27.92c-.29.98.27,2,1.24,2.29.53.16,1.07.23,1.62.23.93,0,1.85-.23,2.7-.69,1.33-.72,2.3-1.92,2.73-3.37Z"/>
    <path class="cls-3" d="m27.19,25.55c0,.64-.21,1.26-.6,1.77.39.5.6,1.12.6,1.77,0,1.59-1.29,2.89-2.89,2.89s-2.89-1.29-2.89-2.89v-.04H5.78v.04c0,1.59-1.3,2.89-2.89,2.89s-2.89-1.29-2.89-2.89c0-.64.21-1.27.6-1.77-.39-.5-.6-1.12-.6-1.77,0-1.59,1.3-2.89,2.89-2.89s2.89,1.3,2.89,2.89v.03h15.63v-.03c0-1.59,1.3-2.89,2.89-2.89s2.89,1.3,2.89,2.89Zm-1.67,1.37c.39-.35.62-.85.62-1.37,0-1.02-.82-1.84-1.84-1.84s-1.84.82-1.84,1.84c0,.14.02.29.05.43.04.16,0,.32-.1.45-.1.13-.25.2-.41.2H5.19c-.16,0-.32-.07-.41-.2-.1-.12-.14-.29-.1-.45.04-.14.05-.29.05-.43,0-1.02-.82-1.84-1.84-1.84s-1.84.82-1.84,1.84c0,.52.22,1.02.61,1.37.11.1.18.24.18.39s-.06.29-.18.39c-.39.35-.61.85-.61,1.38,0,1.01.82,1.84,1.84,1.84s1.84-.82,1.84-1.84c0-.14-.02-.29-.05-.43-.04-.16,0-.32.1-.45.1-.13.25-.2.41-.2h16.81c.16,0,.31.07.41.2.1.12.14.29.1.45-.04.14-.05.29-.05.43,0,1.01.82,1.84,1.84,1.84s1.84-.82,1.84-1.84c0-.52-.22-1.03-.62-1.38-.11-.1-.18-.24-.18-.39s.07-.29.18-.39Z"/>
    <path class="cls-3" d="m25.3,15.84c.7.6,1.12,1.48,1.12,2.41,0,1.74-1.41,3.15-3.15,3.15-.76,0-1.47-.26-2.04-.74-.47.7-.73,1.53-.73,2.39v.7c0,.29-.23.53-.52.53H7.21c-.29,0-.52-.24-.52-.53v-.7c0-.86-.26-1.69-.73-2.39-.56.48-1.28.74-2.04.74-1.74,0-3.15-1.41-3.15-3.15,0-.93.41-1.81,1.12-2.41v-4.17c0-3.12,1.22-6.06,3.43-8.27C7.52,1.21,10.45,0,13.55,0h.08c3.11,0,6.03,1.21,8.23,3.41,2.21,2.21,3.43,5.14,3.43,8.27v4.17Zm.07,2.41c0-.68-.34-1.32-.89-1.72-.14-.1-.22-.26-.22-.43v-4.43c0-2.84-1.11-5.52-3.12-7.52-2.02-2-4.69-3.11-7.54-3.09h-.04c-2.84,0-5.5,1.1-7.5,3.09-2.02,2.01-3.12,4.68-3.12,7.52v4.43c0,.17-.08.33-.22.43-.56.39-.89,1.04-.89,1.72,0,1.16.95,2.1,2.1,2.1.66,0,1.26-.29,1.66-.81.1-.12.24-.2.4-.2.16,0,.31.06.41.18.87.98,1.35,2.23,1.35,3.54v.17h1.81v-1.79c0-.29.23-.52.52-.52s.53.23.53.52v1.79h2.47v-1.79c0-.29.23-.52.52-.52s.53.23.53.52v1.79h2.47v-1.79c0-.29.23-.52.53-.52s.52.23.52.52v1.79h1.81v-.17c0-1.31.48-2.56,1.35-3.54.1-.12.25-.18.41-.18.16,0,.3.08.4.2.4.52,1,.81,1.66.81,1.16,0,2.1-.94,2.1-2.1Z"/>
    <path class="cls-3" d="m23.19,9.05c.08.28-.09.57-.37.64-.05.02-.09.02-.14.02-.23,0-.45-.15-.51-.39-.71-2.58-2.6-4.75-5.06-5.8-.27-.11-.39-.43-.28-.69.12-.27.43-.39.69-.27,2.75,1.18,4.87,3.61,5.66,6.49Z"/>
    <path class="cls-3" d="m22.94,13.49c.14.47.09.97-.15,1.4-.12.21-.27.4-.46.55-.19.15-.4.27-.64.34-.53.16-1.07.23-1.61.23-.93,0-1.86-.23-2.7-.69-1.33-.72-2.3-1.92-2.73-3.37-.08-.28.08-.57.36-.65l3.45-1.02c1.79-.53,3.68.5,4.21,2.29l.27.92Zm-1.07.9c.1-.19.12-.4.06-.6l-.27-.93c-.37-1.23-1.67-1.94-2.9-1.57l-2.91.86c.4.96,1.11,1.75,2.04,2.25.68.37,1.44.56,2.2.56.44,0,.88-.06,1.31-.19.2-.06.37-.2.47-.38Z"/>
    <path class="cls-3" d="m15.51,1.94c.29.05.47.33.41.61-.05.25-.27.43-.52.43-.03,0-.07,0-.1,0-.55-.11-1.11-.16-1.68-.16h-.08c-.29,0-.53-.23-.53-.52s.24-.53.53-.53h.08c.63,0,1.26.06,1.88.18Z"/>
    <path class="cls-3" d="m15.26,15.9c.23.4.23.88,0,1.28-.23.4-.64.64-1.11.64h-1.13c-.46,0-.87-.24-1.1-.64-.23-.4-.23-.88,0-1.28l1.21-2.1c.09-.16.27-.27.46-.27s.36.1.45.27l1.21,2.1Zm-.88.64s0-.07-.03-.11l-.76-1.32-.76,1.32c-.06.1-.03.18,0,.22.02.04.08.11.19.11h1.13c.12,0,.17-.07.2-.11.02-.02.03-.06.03-.11Z"/>
    <path class="cls-3" d="m12.18,11.3c.28.08.44.38.36.65-.43,1.45-1.4,2.65-2.73,3.37-.84.45-1.77.69-2.7.69-.54,0-1.09-.08-1.62-.23-.97-.29-1.53-1.31-1.24-2.29l.27-.92c.26-.87.84-1.58,1.63-2.02.8-.43,1.71-.53,2.58-.27l3.45,1.02Zm-.83.85l-2.91-.86c-.22-.07-.45-.1-.67-.1-.38,0-.76.09-1.11.29-.55.3-.95.79-1.12,1.39l-.27.93c-.12.42.12.86.53.98,1.18.35,2.43.22,3.51-.37.93-.5,1.64-1.29,2.04-2.25Z"/>
  </g>
</svg>