<?xml version="1.0" encoding="UTF-8"?>
<svg id="Layer_1" data-name="Layer 1" xmlns="http://www.w3.org/2000/svg" viewBox="0 0 25.77 36.86">
  <defs>
    <style>
      .cls-1 {
        fill: #b3b3b3;
      }

      .cls-2 {
        fill: #4d4d4d;
      }
    </style>
  </defs>
  <g id="surface1">
    <path class="cls-2" d="m11.68.02s-.25.05-.47.08c-.48.08-1.25.32-1.74.54-1.66.76-2.97,2.13-3.7,3.87-.37.89-.38.93-.38,2.26,0,1.26.04,1.61.27,2.46.66,2.46,2.79,4.36,5.43,4.82.69.12,1.96.12,2.61,0,1.41-.25,2.57-.87,3.67-1.96,1.51-1.49,2.04-2.79,2.04-4.97,0-1.7-.27-2.68-1.06-3.86C16.97,1.23,14.66-.02,12.3,0c-.29,0-.57.02-.61.02Zm2.05,1.86c.52.16,1.33.54,1.79.85.34.23.72.62.67.69-.04.06-.52.21-1.65.52l-.97.27-.59-.27c-2.01-.89-2.81-1.29-2.98-1.48-.06-.07-.05-.11.09-.21.19-.16.85-.37,1.43-.46.68-.11,1.64-.07,2.21.1Zm-3.25,2.88c.11.09.12.12.05.17-.27.18-2.4.74-3.07.81l-.33.04.03-.17c.09-.44.54-1.34.81-1.63.18-.18.42-.19.89,0m8.62,1.18c.15.25.21.55.25,1.26.06,1.18-.14,2.39-.5,3.09-.49.94-1.62,2.05-2.57,2.53-.71.36-1.92.52-2.86.39-1.59-.23-3.02-1.05-3.76-2.14-.43-.64-.94-1.76-1.02-2.28-.03-.2-.03-.21.11-.27.27-.1,3.68-1.06,6.34-1.78,4.14-1.12,3.85-1.07,4.01-.8Z"/>
    <path class="cls-2" d="m3.72,15.34c-1.39.72-2.04,1.29-2.64,2.31-.45.77-.61,1.37-.72,2.83-.23,2.79-.45,10.35-.33,11.12.09.57.25.65,1.48.68.76.03.82.03.82.12,0,.05-.04.61-.08,1.23-.09,1.19-.08,2.48.02,2.73.09.2.25.29.64.35.66.1,6.97.17,13.57.14,6.57-.03,7.58-.06,8.4-.22.48-.1.65-.19.79-.4.09-.14.11-.22.08-.58-.02-.23-.05-.74-.08-1.14-.05-.74-.23-4.09-.42-7.88-.19-3.8-.4-6.71-.52-7.39-.18-.94-1.07-2.33-1.97-3.05-.97-.77-1.55-1-3.02-1.15-.39-.04-2.95-.07-7.91-.08l-7.33-.02-.79.4Zm2.34,1.24s.07.13.06.2c-.09.39-1.58,8.48-2.46,13.36-.07.41-.09.46-.22.51-.07.03-.5.07-.95.09l-.83.02v-.33c0-.71.21-7.35.26-8.26.12-2.12.19-2.68.37-3.11.38-.88,1.39-1.87,2.32-2.28.59-.26,1.29-.36,1.45-.2Zm4.77.04s.06.13,1.12,5.36c1.25,6.15,1.89,9.45,1.84,9.56-.05.15-.27.19-1.2.25-1.06.06-6.6.02-7.02-.06-.47-.09-.46,0-.19-1.59.45-2.64,1.65-9.13,2.2-11.94l.29-1.5.16-.07c.13-.06.41-.07,1.46-.05.71,0,1.31.03,1.32.05Zm6.43,14.88c.52.02.96.05.98.09.02.03.05.57.07,1.2.02.63.05,1.4.07,1.71l.03.56H3.85v-1.45l5.31-.02c5.36-.03,5.72-.04,6.21-.22.46-.17.52-.42.33-1.38-.05-.3-.1-.55-.1-.55,0-.01.16,0,.35.02.2.02.78.05,1.31.06Zm1.27-5.64c.71.11.74.15.85,1.18.05.43.05.71,0,1.15-.07.71-.17.97-.39,1.04-.35.11-.95.16-2.14.16h-1.23l-.03-.14c-.02-.08-.11-.6-.21-1.15-.11-.56-.23-1.24-.29-1.53-.05-.28-.1-.53-.1-.56,0-.08.25-.15.72-.2.57-.05,2.31-.02,2.82.06Zm.02-9.31c.42.03.95.1,1.16.16,1.51.39,2.78,1.74,3.08,3.3.15.75.32,3.22.5,7.33.16,3.62.26,5.42.34,6.48.04.54.08,1.03.08,1.1v.13h-3.8l-.03-.27c-.09-.86-.2-2.68-.18-3.23.02-.61.03-.65.2-.97.29-.53.32-.77.36-2.18.04-1.82-.05-2.47-.42-2.91-.29-.34-.44-1.03-.58-2.7-.18-2.15-.36-2.65-.92-2.65-.32,0-.49.08-.57.25-.12.25-.16.97-.16,2.64v1.68l-.54-.03c-.3-.02-1.13-.05-1.86-.07-.73-.02-1.33-.05-1.34-.06-.02-.03-1.6-7.91-1.6-7.98,0-.08,5.09-.09,6.27-.01Zm0,0c.42.03.95.1,1.16.16,1.51.39,2.78,1.74,3.08,3.3.15.75.32,3.22.5,7.33.16,3.62.26,5.42.34,6.48.04.54.08,1.03.08,1.1v.13h-3.8l-.03-.27c-.09-.86-.2-2.68-.18-3.23.02-.61.03-.65.2-.97.29-.53.32-.77.36-2.18.04-1.82-.05-2.47-.42-2.91-.29-.34-.44-1.03-.58-2.7-.18-2.15-.36-2.65-.92-2.65-.32,0-.49.08-.57.25-.12.25-.16.97-.16,2.64v1.68l-.54-.03c-.3-.02-1.13-.05-1.86-.07-.73-.02-1.33-.05-1.34-.06-.02-.03-1.6-7.91-1.6-7.98,0-.08,5.09-.09,6.27-.01Z"/>
    <path class="cls-1" d="m10.48,4.77c.11.09.12.12.05.17-.27.18-2.4.74-3.07.81l-.33.04.03-.17c.09-.44.54-1.34.81-1.63.18-.18.42-.19.89,0"/>
    <path class="cls-1" d="m13.74,1.89c.52.16,1.33.54,1.79.85.34.23.72.62.67.69-.04.06-.52.21-1.65.52l-.97.27-.59-.27c-2.01-.89-2.81-1.29-2.98-1.48-.06-.07-.05-.11.09-.21.19-.16.85-.37,1.43-.46.68-.11,1.64-.07,2.21.1Z"/>
    <path class="cls-1" d="m18.53,25.86c.71.11.74.15.85,1.18.05.43.05.71,0,1.15-.07.71-.17.97-.39,1.04-.35.11-.95.16-2.14.16h-1.23l-.03-.14c-.02-.08-.11-.6-.21-1.15-.11-.56-.23-1.24-.29-1.53-.05-.28-.1-.53-.1-.56,0-.08.25-.15.72-.2.57-.05,2.31-.02,2.82.06Z"/>
    <path class="cls-2" d="m17.47,5.16c.15.25.21.55.25,1.26.06,1.18-.14,2.39-.5,3.09-.49.94-1.62,2.05-2.57,2.53-.71.36-1.92.52-2.86.39-1.59-.23-3.02-1.05-3.76-2.14-.43-.64-.94-1.76-1.02-2.28-.03-.2-.03-.21.11-.27.27-.1,3.68-1.06,6.34-1.78,4.14-1.12,3.85-1.07,4.01-.8Z"/>
    <path class="cls-1" d="m17.73,5.32c.15.24.21.54.25,1.26.06,1.18-.14,2.38-.5,3.09-.49.93-1.62,2.05-2.57,2.53-.71.36-1.92.52-2.86.39-1.59-.23-3.02-1.04-3.77-2.14-.43-.63-.93-1.76-1.02-2.27-.03-.2-.03-.21.11-.27.27-.1,3.68-1.06,6.34-1.78,4.14-1.12,3.84-1.07,4.01-.79Z"/>
    <path class="cls-1" d="m6.07,16.58s.07.13.06.2c-.09.39-1.58,8.48-2.46,13.36-.07.41-.09.46-.22.51-.07.03-.5.07-.95.09l-.83.02v-.33c0-.71.21-7.35.26-8.26.12-2.12.19-2.68.37-3.11.38-.88,1.39-1.87,2.32-2.28.59-.26,1.29-.36,1.45-.2Z"/>
    <path class="cls-1" d="m17.26,31.5c.52.02.96.05.98.09.02.03.05.57.07,1.2.02.63.05,1.4.07,1.71l.03.56H3.85v-1.45l5.31-.02c5.36-.03,5.72-.04,6.21-.22.46-.17.52-.42.33-1.38-.05-.3-.1-.55-.1-.55,0-.01.16,0,.35.02.2.02.78.05,1.31.06Z"/>
    <path class="cls-1" d="m10.83,16.62s.06.13,1.12,5.36c1.25,6.15,1.89,9.45,1.84,9.56-.05.15-.27.19-1.2.25-1.06.06-6.6.02-7.02-.06-.47-.09-.46,0-.19-1.59.45-2.64,1.65-9.13,2.2-11.94l.29-1.5.16-.07c.13-.06.41-.07,1.46-.05.71,0,1.31.03,1.32.05Z"/>
    <path class="cls-1" d="m18.55,16.68c.42.03.95.1,1.16.16,1.51.39,2.78,1.74,3.08,3.3.15.75.32,3.22.5,7.33.16,3.62.26,5.42.34,6.48.04.54.08,1.03.08,1.1v.13h-3.8l-.03-.27c-.09-.86-.2-2.68-.18-3.23.02-.61.03-.65.2-.97.29-.53.32-.77.36-2.18.04-1.82-.05-2.47-.42-2.91-.29-.34-.44-1.03-.58-2.7-.18-2.15-.36-2.65-.92-2.65-.32,0-.49.08-.57.25-.12.25-.16.97-.16,2.64v1.68l-.54-.03c-.3-.02-1.13-.05-1.86-.07-.73-.02-1.33-.05-1.34-.06-.02-.02-1.6-7.91-1.6-7.98,0-.08,5.09-.09,6.27-.01Z"/>
  </g>
</svg>