<?xml version="1.0" encoding="utf-8"?>
<!-- Generator: Adobe Illustrator 27.3.1, SVG Export Plug-In . SVG Version: 6.00 Build 0)  -->
<svg version="1.0" id="Layer_1" xmlns="http://www.w3.org/2000/svg" xmlns:xlink="http://www.w3.org/1999/xlink" x="0px" y="0px"
	 viewBox="0 0 21 32" style="enable-background:new 0 0 21 32;" xml:space="preserve">
<style type="text/css">
	.st0{fill:#B3B3B3;stroke:#4D4D4D;stroke-width:0.5072;stroke-miterlimit:10;}
</style>
<g id="surface1">
	<path class="st0" d="M11.4,0.3c-0.8,0.1-1.4,0.6-1.9,1.2C9.3,1.8,9.1,2.2,9,2.5c-0.1,0.4-0.1,1,0,1.4c0.3,1.1,1.1,1.9,2.1,2.2
		c0.2,0.1,0.3,0.1,0.7,0.1c0.5,0,0.7,0,1.1-0.2c0.6-0.2,1.2-0.9,1.5-1.5c0.2-0.4,0.2-0.6,0.2-1.2c0-0.6,0-0.7-0.2-1.1
		c-0.2-0.5-0.6-1-1.1-1.3c-0.3-0.2-0.6-0.4-0.9-0.4C12.3,0.3,11.7,0.2,11.4,0.3L11.4,0.3z"/>
	<path class="st0" d="M5.6,7c1,0-2,0-2.7,0C1.5,7,1.3,7.8,1.1,8.2C1,8.5,1,9.1,1,9.1l0.3,0l2.4,0l4.8,0v10.6c0,9.6,0,10.6,0.1,10.8
		c0.1,0.5,0.5,0.9,1,1.1c0.3,0.1,0.8,0.1,1,0c0.5-0.2,0.8-0.5,1-1l0.1-0.2l0-12.3h0.6l0,6.1c0,6.7,0,6.2,0.2,6.6
		c0.3,0.6,1.1,1,1.8,0.8c0.6-0.1,1.1-0.6,1.2-1.2c0-0.2,0-1.5,0-10.2v-10l0.1,0.2c0.4,0.8,0.6,2.1,0.8,3.8c0,0.5,0.1,2.6,0,3.9
		l0,0.8l0.1,0.2c0.1,0.2,0.3,0.4,0.5,0.5c0.1,0.1,0.2,0.1,0.4,0.1c0.2,0,0.3,0,0.4-0.1c0.2-0.1,0.4-0.3,0.5-0.5
		c0.1-0.2,0.1-0.9,0.1-2.8c0-1.7,0-2.1-0.1-3.2C18.1,10.7,17.5,9,16.6,8c-0.3-0.4-0.6-0.5-1-0.7C15,7,16,7,6.9,7C0.5,7,5.7,7,5.6,7z
		"/>
</g>
</svg>
